<?xml version="1.0" encoding="utf-8"?>
<!-- Generator: Adobe Illustrator 23.0.3, SVG Export Plug-In . SVG Version: 6.00 Build 0)  -->
<svg version="1.1" id="Layer_1" xmlns="http://www.w3.org/2000/svg" xmlns:xlink="http://www.w3.org/1999/xlink" x="0px" y="0px"
	 viewBox="0 0 180 100" style="enable-background:new 0 0 180 100;" xml:space="preserve">
<style type="text/css">
	.st0{fill:#335CBC;}
	.st1{fill:#F7B512;}
	.st2{fill:none;stroke:#1A1A1A;stroke-width:5;stroke-miterlimit:10;}
	.st3{fill:none;}
	.st4{fill:#1A1A1A;}
</style>
<path class="st0" d="M90,82.5c-73,0-73,0-73-32.5c0.95-32.5,0.95-32.5,73-32.5"/>
<path class="st1" d="M90,17.5c73,0,73,0,73,32.5s0,32.5-73,32.5"/>
<path class="st2" d="M147.9,80.28C137.46,82.5,119.82,82.5,90,82.5"/>
<path class="st2" d="M85,17.5c29.82,0,52.46,0,62.9,2.22"/>
<path class="st2" d="M78.55,82.49C17,82.4,17,80.7,17,50c0.9-30.68,0.95-32.4,61.55-32.49"/>
<line class="st3" x1="72.82" y1="67" x2="72.82" y2="82"/>
<line class="st2" x1="17.48" y1="50" x2="78.07" y2="50"/>
<path class="st4" d="M141.79,16.27"/>
<line class="st4" x1="88.74" y1="83.71" x2="96.38" y2="83.78"/>
<path class="st4" d="M151.37,17.71C131.23,40.14,111.09,62.57,90.95,85h-5.73l61.09-68.12"/>
</svg>
